# xmcd
#
# Track frame offsets:
#	150
#	13633
#	25907
#	40289
#	54575
#	66945
#	80275
#	93058
#	107213
#	119894
#	131952
#	146216
#	158870
#	171065
#	182843
#	195483
#	209581
#	222932
#	236806
#	250024
#	263201
#	275355
#
# Disc length: 3852 seconds
#
# Revision: 4
# Processed by: cddbd v1.5.2PL0 Copyright (c) Steve Scherf et al.
# Submitted via: EasyCDDAExtractor 10.0.2.1
#
DISCID=4c0f0a16
DTITLE=Wilf Carter - (Montana Slim) - Cowboy Songs - CD4
DYEAR=1997
DGENRE=Country
TTITLE0=The Hobo's Yodel
TTITLE1=The Yodeling Cowgirl
TTITLE2=The Fate Of Sunset Trail
TTITLE3=Prairie Sunset
TTITLE4=I Just Can't Forget You Old Pal
TTITLE5=Roundup Time In Heaven
TTITLE6=Put My Little Shoes Away
TTITLE7=When The Bright Prairie Moon Is Rolling By
TTITLE8=Roll On Dreay Texas Moon
TTITLE9=The Old Barn Dance
TTITLE10=Dreamy Prairie Moon
TTITLE11=Roundup Time In Sunny Old Alberta
TTITLE12=Roll Along Moonlight Yodel
TTITLE13=My Faithful Pinto Pal
TTITLE14=The Preacher And The Cowboy
TTITLE15=When The Sun Says Goodnight To The Prairie
TTITLE16=Where Is My Boy Tonight
TTITLE17=There's A Loveknot In My Lariat
TTITLE18=My Little Yoho Lady
TTITLE19=How My Yodelling Days Began
TTITLE20=Answer To My Swiss Moonlight Lullaby
TTITLE21=The Hindenburg Disaster
EXTD=
EXTT0=
EXTT1=
EXTT2=
EXTT3=
EXTT4=
EXTT5=
EXTT6=
EXTT7=
EXTT8=
EXTT9=
EXTT10=
EXTT11=
EXTT12=
EXTT13=
EXTT14=
EXTT15=
EXTT16=
EXTT17=
EXTT18=
EXTT19=
EXTT20=
EXTT21=
PLAYORDER=
